<?xml version="1.0" encoding="UTF-8" standalone="no"?>
<!-- Created with Inkscape (http://www.inkscape.org/) -->

<svg
   width="13.121646mm"
   height="11.404962mm"
   viewBox="0 0 13.121646 11.404962"
   version="1.1"
   id="svg1"
   xml:space="preserve"
   xmlns="http://www.w3.org/2000/svg"
   xmlns:svg="http://www.w3.org/2000/svg"><defs
     id="defs1" /><g
     id="layer1"
     transform="translate(-398.73689,29.689142)"><path
       id="path386"
       style="opacity:1;fill:#6d54e4;fill-opacity:1;stroke:none;stroke-width:0.381398;stroke-linecap:square;stroke-linejoin:bevel;stroke-dasharray:none"
       d="m 408.87822,-29.689143 -3.44733,6.169802 3.01833,5.061602 a 6.5607742,6.5607742 0 0 0 3.40936,-5.735384 6.5607742,6.5607742 0 0 0 -2.98036,-5.49602 z m -7.16703,0.0063 a 6.5607742,6.5607742 0 0 0 -2.97426,5.489693 6.5607742,6.5607742 0 0 0 3.72738,5.908969 l 2.92363,-5.232702 z" /><path
       style="opacity:1;fill:#40ef86;fill-opacity:1;stroke:#000000;stroke-width:0.73;stroke-linecap:square;stroke-linejoin:bevel;stroke-dasharray:none"
       d="m 406.18237,-27.188094 c -0.27973,-0.063 -1.08958,-0.178967 -1.71764,0.09677 -0.62806,0.275737 -1.31741,0.900344 -1.71765,1.669255 -0.40024,0.768911 -0.61084,2.075685 -0.44755,2.770001 0.16329,0.694316 0.45545,0.855713 0.85882,1.197511 0.40337,0.341798 1.01942,0.696168 1.5241,0.749953 0.50468,0.05379 0.86518,-0.102287 1.30638,-0.326589 0.4412,-0.224302 0.81881,-0.508936 1.24589,-1.04026 0.42708,-0.531324 1.07799,-1.405573 1.13704,-2.189393 0.0591,-0.78382 -0.30526,-1.629665 -0.72577,-2.128905 -0.42051,-0.49924 -1.19255,-0.737285 -1.46362,-0.798341 -0.27107,-0.06105 0.27973,0.063 0,-2e-6 z"
       id="path382" /></g></svg>
